<svg xmlns="http://www.w3.org/2000/svg" width="224.068" height="150.00" viewBox="0 0 224.068 210.726">
  <g id="onibus" transform="translate(-0.072 -0.007)">
    <path id="Caminho_8" data-name="Caminho 8" d="M400,604.747a14.143,14.143,0,0,1-12.526-8.155A14.952,14.952,0,0,1,386,590.422c-.184-11.424,0-22.884-.184-34.345V460.611a35.7,35.7,0,0,1,7.346-20.46,40.074,40.074,0,0,1,34.344-17.778c8.191,0,16.382,0,24.574-.184h38.973c6.648,0,13.3-.294,19.909-.22a41.764,41.764,0,0,1,29.57,11.57,40.7,40.7,0,0,1,12.892,30.267c.184,11.5,0,23.031,0,34.565v63.8c0,9,.184,18,0,27a13.445,13.445,0,0,1-3.673,10.542,15.355,15.355,0,0,1-9.991,4.261,66.385,66.385,0,0,0,0,8.963c1.506,12.121-5.363,19.578-15.427,19.284H512.362a13.664,13.664,0,0,1-14.693-15.06c0-4.151,0-8.265,0-12.305l-55.98-.588v13.738a14.288,14.288,0,0,1-3.673,9.771,13.406,13.406,0,0,1-10.285,4.885A180.766,180.766,0,0,1,409.365,632a11.424,11.424,0,0,1-9.036-8.558,20.933,20.933,0,0,1-.882-6.1C399.815,613.122,399.962,608.9,400,604.747ZM539.58,464.431c-9.293,0-18.366-.257-27.292-.294H399.043c.184,3.673.514,7.126.514,10.579v50.764c0,7.347,0,14.693.257,22.039a3.013,3.013,0,0,0,.221.735H538.7a7.326,7.326,0,0,0,.992,0V476c-.184-4.224-.11-8.008-.073-11.571Zm-98.405-14.362h52.71a33.264,33.264,0,0,0,3.673-.441l-.514-13.738H449.072c-2.608,0-5.179.331-7.824.551Zm-26.337,112.62a13.444,13.444,0,0,0-14.95,14.215,13.958,13.958,0,0,0,27.88-.478,13.407,13.407,0,0,0-12.893-13.738Zm110.894-.661a14.289,14.289,0,0,0-13.958,13.885,13.775,13.775,0,0,0,14.032,14.032,13.481,13.481,0,0,0,13.958-13.958,14.215,14.215,0,0,0-13.995-13.958Z" transform="translate(-357.473 -421.95)" fill="#fff"/>
    <path id="Caminho_9" data-name="Caminho 9" d="M435.23,437.12h8.081a6.979,6.979,0,0,1,6.171,6.318,7.1,7.1,0,0,1,0,.881V471.1a7.347,7.347,0,0,1-8.265,8.118h-5.4c-.184-2.682-.514-5.216-.514-7.75,0-9.036.22-18.035.22-27.072A45.263,45.263,0,0,0,435.23,437.12Z" transform="translate(-225.39 -381.416)" fill="#fff"/>
    <path id="Caminho_10" data-name="Caminho 10" d="M392.366,437.467l-.4,41.764c-2.939,0-6.061,0-9.183-.184a6.465,6.465,0,0,1-4.628-5.914,10.653,10.653,0,0,1,0-1.543v-26.3a7.346,7.346,0,0,1,8.008-7.9Z" transform="translate(-378.05 -380.771)" fill="#fff"/>
  </g>
</svg>
