<svg xmlns="http://www.w3.org/2000/svg" width="151.403" height="145.581" viewBox="0 -25 151.403 145.581">
  <path id="iconfinder_car_2639905" d="M133.051,54.522,121.909,19.814C118.871,10.357,110.653,4,101.46,4H43.3C34.11,4,25.892,10.357,22.86,19.808L11.718,54.516A24.261,24.261,0,0,0,2,74.267v41.886c0,6.523,4.846,11.806,10.828,11.806s10.828-5.283,10.828-11.806V108.71s28.591,1.541,48.726,1.541,48.726-1.541,48.726-1.541v7.443c0,6.523,4.846,11.806,10.828,11.806s10.828-5.283,10.828-11.806V74.267A24.267,24.267,0,0,0,133.051,54.522ZM26.877,43.035l6.2-19.326a10.936,10.936,0,0,1,10.222-7.9H101.46a10.936,10.936,0,0,1,10.222,7.9l6.2,19.326c.975,3.04-1.348,6.1-4.266,5.59A237.84,237.84,0,0,0,72.382,45.32a237.839,237.839,0,0,0-41.238,3.306C28.225,49.139,25.9,46.075,26.877,43.035Zm-.514,43.6c-4.483,0-8.121-3.967-8.121-8.854s3.638-8.854,8.121-8.854,8.121,3.967,8.121,8.854S30.846,86.64,26.363,86.64Zm62.261-5.9H56.14a5.925,5.925,0,0,1,0-11.806H88.623a5.925,5.925,0,0,1,0,11.806Zm29.777,5.9c-4.483,0-8.121-3.967-8.121-8.854s3.638-8.854,8.121-8.854,8.121,3.967,8.121,8.854S122.883,86.64,118.4,86.64Z" transform="translate(-2 -4)" fill="#fff"/>
</svg>
