<svg xmlns="http://www.w3.org/2000/svg" width="572.785" height="183.236" viewBox="0 0 572.785 183.236">
  <g id="Camada_x0020_1" transform="translate(-3731.484 -7328.221)">
    <path id="Caminho_3" data-name="Caminho 3" d="M27222.469,9484.333l1.115-4.056h-2.129c-1.521,0-4.764-.051-6.389-1.014-2.129-1.268-1.266-3.5-.811-5.121l2.686-9.531h10.9l1.115-4.006h-10.85l2.129-7.605h-8.57l-2.178,7.605h-5.375l-1.115,4.006h5.324l-3.4,11.965c-.811,2.99.051,4.715,2.23,5.982,2.08,1.217,4.715,1.774,9.938,1.774Zm25.35-23.981c-4.664,0-11.508.051-16.477,2.484a14.742,14.742,0,0,0-7.758,9.734c-.709,2.383-1.572,6.845,2.283,9.481,3.6,2.332,10.393,2.534,15.059,2.534,4.461,0,11.559-.2,16.426-2.534a14.853,14.853,0,0,0,7.756-9.685c.709-2.484,1.471-7-2.281-9.531C27259.227,9460.4,27252.434,9460.352,27247.818,9460.352Zm-15.311,12.168c.406-1.521,1.268-4.562,4.207-6.286,2.891-1.673,7.148-1.876,9.938-1.876,3.094,0,6.793.2,8.822,1.876,2.182,1.825,1.217,4.512.711,6.286-.609,2.028-1.268,4.31-4.311,6.084-3.094,1.725-6.59,1.928-9.836,1.928-3.092,0-6.793-.2-8.77-1.928C27231.342,9476.881,27231.949,9474.447,27232.508,9472.52Zm67.178,7.555,5.525-19.469h-8.617l-5.02,17.745a2,2,0,0,1-1.168,1.419,5.27,5.27,0,0,1-2.635.508h-7.15c-3.041,0-5.373-.2-6.539-1.521-.863-.861-.863-2.027-.254-4.157l3.955-13.993h-8.619l-4.207,14.956c-.863,2.89-.812,5.272,1.977,6.946,2.23,1.42,5.121,1.825,9.633,1.825h13.74a15.78,15.78,0,0,0,6.338-.913A4.78,4.78,0,0,0,27299.686,9480.074Zm.559,4.259h8.568l3.8-13.386a7.376,7.376,0,0,1,3.348-4.664,15.47,15.47,0,0,1,7.809-1.672h3.6l1.168-4.006h-5.832c-2.99,0-8.111.152-12.27,2.027a10.325,10.325,0,0,0-6.033,6.9Z" transform="translate(-23053.746 -2033.4)" fill="#fff"/>
    <ellipse id="Elipse_1" data-name="Elipse 1" cx="15.631" cy="14.527" rx="15.631" ry="14.527" transform="translate(4254.005 7384.453)" fill="#fff"/>
    <path id="Caminho_4" data-name="Caminho 4" d="M20172.9,8826.512c2.789,6.592,8.213,7.555,13.484,4.462-5.879,5.272-14.145,5.272-18.1-2.991l-23.223-48.875c-.555-1.166-1.672-.963-2.535-.963l-24.08,76.658H20075l34.578-108.8,21.191.051c12.219,0,17.035,8.011,19.773,15.971Z" transform="translate(-16287.137 -1362.245)" fill="#fff"/>
    <path id="Caminho_5" data-name="Caminho 5" d="M24542.188,8722l-36,28.139-71.387-.051c-12.27,0-32.449,4.208-32.8,16.478-.254,8.315,9.936,12.017,17.9,13.892l36.91,8.721-52.07-7.3c-20.076-2.839-35.387-14.145-33.816-29.355,2.738-25.451,46.949-30.471,68.8-30.471Z" transform="translate(-20365.15 -1339.462)" fill="#fff" fill-rule="evenodd"/>
    <path id="Caminho_6" data-name="Caminho 6" d="M23712,9743.8l37.975-27.835h66.873c11.965,0,32.7-2.534,33.313-13.841.455-7.655-10.6-10.394-18.355-12.117l-36.148-8.011,50.953,6.743c19.621,2.586,34.629,12.979,33.006,26.972-2.687,23.424-45.984,28.038-67.33,28.038Z" transform="translate(-19739.74 -2250.79)" fill="#fff" fill-rule="evenodd"/>
    <path id="Caminho_7" data-name="Caminho 7" d="M21904.973,8806.087l40.561-33.919a6.7,6.7,0,0,1,5.475-1.47l-24.285,79.8h43.2l32.145-109.512h-20.889c-14.248-.051-22.918,2.788-37.621,17.339l-41.877,41.423c-3.346,3.295-6.643,2.788-8.162-.711L21878,8765.223l13.283,38.025C21893.363,8809.737,21899.648,8810.041,21904.973,8806.087Z" transform="translate(-17998.725 -1357.487)" fill="#fff"/>
    <path id="Caminho_8" data-name="Caminho 8" d="M25236.09,9261c10.7,11.357,9.482,25.351,2.23,36.656-32.242,52.525-179.273,62.868-251.32,62.97,43.754,4.613,255.631,7.1,267.039-64.947C25256.117,9282.4,25248.107,9269.822,25236.09,9261Z" transform="translate(-20950.098 -1851.135)" fill="#fff" fill-rule="evenodd"/>
    <path id="Caminho_9" data-name="Caminho 9" d="M18994.623,7789.387c-12.826-7.554-15.107-22.358-9.531-36.149,14.35-35.338,66.113-55.82,89.385-63.324,119.906-38.481,301.006-28.646,410.52,17.188-70.32-37.822-169.287-58.2-274.744-56.328-53.793.964-156.664,11.509-214.918,51.917C18954.723,7730.879,18950.008,7767.991,18994.623,7789.387Z" transform="translate(-15231.503 -322.433)" fill="#fff" fill-rule="evenodd"/>
  </g>
</svg>
