<svg xmlns="http://www.w3.org/2000/svg" width="151.403" height="145.581" viewBox="0 0 151.403 145.581">
  <path id="Caminho_28" data-name="Caminho 28" d="M0,145.581l37-30.471V52.77L0,83.242ZM74.958,82.628,38.7,52.77v62.34l36.258,29.858ZM86.912,23.292A11.647,11.647,0,1,1,75.266,11.644,11.646,11.646,0,0,1,86.912,23.292M95.87,34.94a23.291,23.291,0,1,0-38.09,3.229L75.723,64.054l18.2-26.262a23.112,23.112,0,0,0,1.795-2.587l.185-.265ZM76.7,144.759l35.692-29.391V53.029L76.7,82.422Zm74.7.822V83.242l-37.441-30.83V114.75Z" fill="#fff"/>
</svg>
