<svg xmlns="http://www.w3.org/2000/svg" width="113.352" height="150" viewBox="0 0 113.352 130">
  <g id="Agrupar_1" data-name="Agrupar 1" transform="translate(0 0)">
    <path id="Caminho_25" data-name="Caminho 25" d="M8.623,43.443A9.226,9.226,0,0,0,10.7,47.979c2.047,14.246,14.834,26.387,25.1,25.879,13.065-.641,22.325-14.722,24.4-25.879A11.384,11.384,0,0,0,62.4,42.967c.556-2.56,1.154-6.418-.385-8.459-.091-.107-.679-.647-.78-.737,1.469-5.3,4.7-14.759-3.34-23.261C53.536,5.9,47.487,3.59,42.02,1.763,25.883-3.629,14.49,3.932,9.232,16.506c-.379.892-2.832,6.541.139,17.265a3.046,3.046,0,0,0-.769.737C7.057,36.544,8.062,40.883,8.623,43.443Z" transform="translate(21.226 0)" fill="#fff"/>
    <path id="Caminho_26" data-name="Caminho 26" d="M115.662,64.712c-.449-9.805-1-25.345-9.57-38.057,0,0-2.442-3.329-8.234-5.541,0,0-12.579-3.831-18.371-7.973l-2.645,1.811.294,17.2-15.881,42.4a2.372,2.372,0,0,1-4.446,0l-15.876-42.4s.294-17.142.289-17.2c.037.144-2.65-1.811-2.65-1.811C32.789,17.282,20.2,21.114,20.2,21.114c-5.792,2.212-8.234,5.541-8.234,5.541C3.41,39.367,2.844,54.906,2.395,64.712c-.31,6.776,1.111,9.3,2.9,10.025,22.154,8.892,85.31,8.892,107.47,0C114.556,74.02,115.967,71.487,115.662,64.712Z" transform="translate(-2.352 57.078)" fill="#fff"/>
    <path id="Caminho_27" data-name="Caminho 27" d="M19.276,15.842l-.716.016a21.235,21.235,0,0,1-6.925-1.24l6.295,9.634L12.282,29.7l5.814,35.3a.622.622,0,0,0,.62.524.63.63,0,0,0,.62-.524l5.814-35.3L19.5,24.252l6.2-9.49A26.6,26.6,0,0,1,19.276,15.842Z" transform="translate(37.969 63.494)" fill="#fff"/>
  </g>
</svg>
