<svg xmlns="http://www.w3.org/2000/svg" width="200.96" height="148" viewBox="0 0 176.96 180.712">
  <g id="van" transform="translate(-249.164 -166.85)">
    <path id="Caminho_2" data-name="Caminho 2" d="M268.407,289.638c-2.208-14.29-2.214-28.118,3.283-41.579,7.091-17.377,9.172-36.05,13.67-54.1,1.018-4.08,2.227-8.116,3.308-12.183,2.3-8.635,7.452-13.031,16.82-13.6,27.188-1.645,54.325-2.1,81.468.614,6.421.645,9.862,4.554,11.595,10.045,2.4,7.616,4.586,15.333,6.25,23.133,3.8,17.807,7.407,35.626,14.024,52.7,3.308,8.54,3.34,21.824,1.082,34.956Q344.321,289.644,268.407,289.638Zm131.422-57.526a7.629,7.629,0,0,0-.013-1.449c-2.688-12.341-5.352-24.683-8.185-36.986a3.452,3.452,0,0,0-2.492-1.986c-8.5-.7-17.016-1.493-25.537-1.721-21.286-.563-42.572-.588-63.807,1.518-2.252.221-3.03,1.088-3.454,3.125-1.24,5.978-2.688,11.911-3.979,17.876-1.4,6.446-2.714,12.917-4.118,19.622Zm-55.894,51.82c8.641,0,17.288.063,25.929-.025,4.061-.038,7.875-.867,9.425-5.371.993-2.885,1.91-5.8,2.676-8.748.98-3.783-.361-5.687-4.219-6.035a379.535,379.535,0,0,0-67.242.006c-3.663.323-5,2.227-4.143,5.845.481,2.043,1.2,4.036,1.8,6.047,2.005,6.655,4.15,8.274,11.114,8.287C327.489,283.957,335.712,283.938,343.935,283.932Zm-70.512-23.924c-.12,6.541-.411,12.468-.278,18.389.095,4.276,1.4,5.383,5.782,5.5,4.725.127,9.463.108,14.189.019,3.428-.063,4.978-2.157,4.029-5.478-1.037-3.631-2.29-7.2-3.447-10.792a8.652,8.652,0,0,0-6.958-6.174C282.659,260.736,278.471,260.533,273.423,260.008Zm140.822.076c-4.257.411-8.141.595-11.955,1.208a8.852,8.852,0,0,0-7.483,6c-1.284,3.776-2.562,7.559-3.644,11.393-.689,2.442.089,4.921,2.771,5.035a178.369,178.369,0,0,0,17.921-.323c1.12-.063,2.954-1.474,3.093-2.448A60.255,60.255,0,0,0,414.245,260.084Z" transform="translate(-6.562 0)" fill="#fff"/>
    <path id="Caminho_3" data-name="Caminho 3" d="M420.758,374.28c1.056,15.068-5.75,19.73-16.453,20-18,.455-36.018.31-54.028.348q-29.547.057-59.094-.038a62.42,62.42,0,0,1-10.368-.772c-7.932-1.379-11.171-4.795-12.531-12.816-.361-2.144-.4-4.339-.614-6.724Z" transform="translate(-6.8 -76.216)" fill="#fff"/>
    <path id="Caminho_4" data-name="Caminho 4" d="M462.612,416.186c9.8-.051,19.565.633,28.579-4.827,0,4.732.291,9.039-.076,13.284-.449,5.193-5.048,9.141-10.292,9.337-2.524.095-5.054.076-7.578.013a10.573,10.573,0,0,1-10.6-9.691C462.4,421.721,462.612,419.1,462.612,416.186Z" transform="translate(-78.397 -89.841)" fill="#fff"/>
    <path id="Caminho_5" data-name="Caminho 5" d="M270.194,411.4c8.989,5.453,18.749,4.725,28.788,4.833a76.093,76.093,0,0,1-.55,9.311,10.778,10.778,0,0,1-2.568,4.921c-4.763,5.37-18.382,5.244-22.987-.234a10.319,10.319,0,0,1-2.556-5.269C269.947,420.616,270.194,416.22,270.194,411.4Z" transform="translate(-7.697 -89.856)" fill="#fff"/>
    <path id="Caminho_6" data-name="Caminho 6" d="M264.5,246.762a22.108,22.108,0,0,1-.955,4.472c-.835,1.891.658,5.206-3.359,5.282-6.667.127-8.2-.569-9.381-5.32a50.619,50.619,0,0,1-1.613-8.635c-.4-6.142,3.479-9.862,9.545-9.134a4.141,4.141,0,0,1,2.669,2.65c.449,1.778.127,3.751.139,5.643C261.573,245.022,261.573,245.022,264.5,246.762Z" transform="translate(0 -24.429)" fill="#fff"/>
    <path id="Caminho_7" data-name="Caminho 7" d="M504.47,246.367c2.783-.424,3.125-2.163,3.049-4.238-.063-1.891.019-3.783-.019-5.674-.044-2.492,1.271-3.3,3.587-3.182,6.452.335,9.552,3.89,8.71,10.361a69.291,69.291,0,0,1-1.67,8c-1.018,3.991-7.376,6.655-10.994,4.624a2.441,2.441,0,0,1-.949-1.505C505.59,252.1,505.09,249.429,504.47,246.367Z" transform="translate(-93.808 -24.402)" fill="#fff"/>
  </g>
</svg>
